# xmcd
#
# Track frame offsets: 
#        150
#        9367
#        29217
#        41673
#        74235
#
# Disc length: 1267 seconds
#
# Revision: 0
# Processed by: cddbd v1.5.2PL0 Copyright (c) Steve Scherf et al.
# Submitted via: ExactAudioCopy v1.0b3
#
DISCID=4604f105
DTITLE=Matthias Schlechter and Jochen Reich - Pinetown Welcome
DYEAR=1900
DGENRE=
TTITLE0=Pinetown Welcome
TTITLE1=He Konows The Rules
TTITLE2=Shake Your Boogie
TTITLE3=Low Down Dog
TTITLE4=Bring It On Home
EXTD=
EXTT0=
EXTT1=
EXTT2=
EXTT3=
EXTT4=
PLAYORDER=
